{"scene":0,"asset":{"generator":"ImageToStl.com","version":"2.0"},"scenes":[{"name":"Scene","nodes":[0]}],"nodes":[{"name":"Node0","children":[1]},{"name":"Node1","mesh":0}],"materials":[{"name":"x1","pbrMetallicRoughness":{"baseColorFactor":[0.85,0.85,0.85,1.0],"metallicFactor":0.05,"roughnessFactor":0.5},"doubleSided":true}],"meshes":[{"name":"Mesh0","primitives":[{"indices":3,"material":0,"attributes":{"POSITION":0,"NORMAL":1,"TEXCOORD_0":2}}]}],"accessors":[{"bufferView":0,"componentType":5126,"count":645,"type":"VEC3","min":[-11.09985,-11.099854,-1.099901],"max":[0.0,0.0,3.7282]},{"bufferView":1,"componentType":5126,"count":645,"type":"VEC3"},{"bufferView":2,"componentType":5126,"count":645,"type":"VEC2"},{"bufferView":3,"componentType":5123,"count":9792,"type":"SCALAR"}],"bufferViews":[{"target":34962,"buffer":0,"byteLength":7740,"byteOffset":0},{"target":34962,"buffer":0,"byteLength":7740,"byteOffset":7740},{"target":34962,"buffer":0,"byteLength":5160,"byteOffset":15480},{"target":34963,"buffer":0,"byteLength":19584,"byteOffset":20640}],"buffers":[{"byteLength":40224,"uri":"data:application/octet-stream;base64,"}]}