{"scene":0,"asset":{"generator":"ImageToStl.com","version":"2.0"},"scenes":[{"name":"Scene","nodes":[0]}],"nodes":[{"name":"Node0","children":[1]},{"name":"Node1","mesh":0}],"materials":[{"name":"x1","pbrMetallicRoughness":{"baseColorFactor":[0.85,0.85,0.85,1.0],"metallicFactor":0.05,"roughnessFactor":0.5},"doubleSided":true}],"meshes":[{"name":"Mesh0","primitives":[{"indices":3,"material":0,"attributes":{"POSITION":0,"NORMAL":1,"TEXCOORD_0":2}}]}],"accessors":[{"bufferView":0,"componentType":5126,"count":637,"type":"VEC3","min":[-11.099851,0.0,1.271793],"max":[0.0,11.099853,6.1]},{"bufferView":1,"componentType":5126,"count":637,"type":"VEC3"},{"bufferView":2,"componentType":5126,"count":637,"type":"VEC2"},{"bufferView":3,"componentType":5123,"count":9396,"type":"SCALAR"}],"bufferViews":[{"target":34962,"buffer":0,"byteLength":7644,"byteOffset":0},{"target":34962,"buffer":0,"byteLength":7644,"byteOffset":7644},{"target":34962,"buffer":0,"byteLength":5096,"byteOffset":15288},{"target":34963,"buffer":0,"byteLength":18792,"byteOffset":20384}],"buffers":[{"byteLength":39176,"uri":"data:application/octet-stream;base64,"}]}