{"scene":0,"asset":{"generator":"ImageToStl.com","version":"2.0"},"scenes":[{"name":"Scene","nodes":[0]}],"nodes":[{"name":"Node0","children":[1]},{"name":"Node1","mesh":0}],"materials":[{"name":"x1","pbrMetallicRoughness":{"baseColorFactor":[0.85,0.85,0.85,1.0],"metallicFactor":0.05,"roughnessFactor":0.5},"doubleSided":true}],"meshes":[{"name":"Mesh0","primitives":[{"indices":3,"material":0,"attributes":{"POSITION":0,"NORMAL":1,"TEXCOORD_0":2}}]}],"accessors":[{"bufferView":0,"componentType":5126,"count":5978,"type":"VEC3","min":[0.0,0.0,-0.101327],"max":[10.12306,10.099995,2.611549]},{"bufferView":1,"componentType":5126,"count":5978,"type":"VEC3"},{"bufferView":2,"componentType":5126,"count":5978,"type":"VEC2"},{"bufferView":3,"componentType":5123,"count":88506,"type":"SCALAR"}],"bufferViews":[{"target":34962,"buffer":0,"byteLength":71736,"byteOffset":0},{"target":34962,"buffer":0,"byteLength":71736,"byteOffset":71736},{"target":34962,"buffer":0,"byteLength":47824,"byteOffset":143472},{"target":34963,"buffer":0,"byteLength":177012,"byteOffset":191296}],"buffers":[{"byteLength":368308,"uri":"data:application/octet-stream;base64,"}]}