{"scene":0,"asset":{"generator":"ImageToStl.com","version":"2.0"},"scenes":[{"name":"Scene","nodes":[0]}],"nodes":[{"name":"Node0","children":[1]},{"name":"Node1","mesh":0}],"materials":[{"name":"x1","pbrMetallicRoughness":{"baseColorFactor":[0.85,0.85,0.85,1.0],"metallicFactor":0.05,"roughnessFactor":0.5},"doubleSided":true}],"meshes":[{"name":"Mesh0","primitives":[{"indices":3,"material":0,"attributes":{"POSITION":0,"NORMAL":1,"TEXCOORD_0":2}}]}],"accessors":[{"bufferView":0,"componentType":5126,"count":2141,"type":"VEC3","min":[0.0,-10.099926,2.388436],"max":[10.100232,0.0,5.09891]},{"bufferView":1,"componentType":5126,"count":2141,"type":"VEC3"},{"bufferView":2,"componentType":5126,"count":2141,"type":"VEC2"},{"bufferView":3,"componentType":5123,"count":35910,"type":"SCALAR"}],"bufferViews":[{"target":34962,"buffer":0,"byteLength":25692,"byteOffset":0},{"target":34962,"buffer":0,"byteLength":25692,"byteOffset":25692},{"target":34962,"buffer":0,"byteLength":17128,"byteOffset":51384},{"target":34963,"buffer":0,"byteLength":71820,"byteOffset":68512}],"buffers":[{"byteLength":140332,"uri":"data:application/octet-stream;base64,"}]}